<svg version="1.1" xmlns="http://www.w3.org/2000/svg" style="display: block;" viewBox="0 0 2048 2048" width="512" height="512" preserveAspectRatio="xMidYMid meet">
<defs>
	<linearGradient id="Gradient1" gradientUnits="userSpaceOnUse" x1="882.082" y1="1129.68" x2="867.183" y2="1127.86">
		<stop class="stop0" offset="0" stop-opacity="1" stop-color="rgb(82,83,84)"/>
		<stop class="stop1" offset="1" stop-opacity="1" stop-color="rgb(114,115,116)"/>
	</linearGradient>
	<linearGradient id="Gradient2" gradientUnits="userSpaceOnUse" x1="1358.4" y1="1121.86" x2="1390.16" y2="1132.14">
		<stop class="stop0" offset="0" stop-opacity="1" stop-color="rgb(77,74,76)"/>
		<stop class="stop1" offset="1" stop-opacity="1" stop-color="rgb(122,122,124)"/>
	</linearGradient>
	<linearGradient id="Gradient3" gradientUnits="userSpaceOnUse" x1="1516.33" y1="1138.49" x2="1487.9" y2="1119.66">
		<stop class="stop0" offset="0" stop-opacity="1" stop-color="rgb(88,87,89)"/>
		<stop class="stop1" offset="1" stop-opacity="1" stop-color="rgb(125,126,126)"/>
	</linearGradient>
	<linearGradient id="Gradient4" gradientUnits="userSpaceOnUse" x1="818.402" y1="1119.33" x2="853.413" y2="1129.19">
		<stop class="stop0" offset="0" stop-opacity="1" stop-color="rgb(87,84,88)"/>
		<stop class="stop1" offset="1" stop-opacity="1" stop-color="rgb(115,116,115)"/>
	</linearGradient>
	<linearGradient id="Gradient5" gradientUnits="userSpaceOnUse" x1="979.123" y1="1112.71" x2="955.877" y2="1130.29">
		<stop class="stop0" offset="0" stop-opacity="1" stop-color="rgb(77,83,80)"/>
		<stop class="stop1" offset="1" stop-opacity="1" stop-color="rgb(112,107,112)"/>
	</linearGradient>
</defs>
<path transform="translate(0,0)" fill="rgb(15,76,95)" d="M 234.436 899.356 C 275.572 897.858 325.882 899.203 367.628 899.168 L 421.193 899.142 C 437.481 899.142 471.544 897.821 483.95 908.89 C 510.916 932.952 562.508 974.308 572.264 1008.99 C 587.058 1061.58 519.523 1104.5 488.462 1136.78 C 483.99 1141.45 469.343 1146.19 462.882 1147.75 C 457.015 1148.88 452.136 1148.94 446.217 1149.18 L 446.303 1115.68 C 455.846 1115.19 463.82 1114.67 471.516 1108.04 C 490.13 1092.2 506.281 1073.66 523.865 1056.69 C 535.267 1045.69 546.161 1030.22 539.231 1013.57 C 533.338 999.419 518.365 986.299 507.234 975.343 C 494.135 962.451 479.493 945.542 463.773 935.832 C 455.435 931.324 418.984 932.851 408.099 932.857 L 294.61 932.928 C 277.77 932.944 237.323 935.431 223.812 929.565 C 213.55 925.109 212.3 903.181 234.436 899.356 z"/>
<path transform="translate(0,0)" fill="rgb(52,165,109)" d="M 415.033 993.996 C 426.015 993.575 429.069 996.405 434.888 1005.37 C 436.013 1038.69 434.474 1073.81 435.043 1107.21 C 435.252 1119.5 434.188 1142.75 435.943 1153.96 C 437.142 1161.88 440.045 1169.45 444.45 1176.15 C 452.004 1187.67 463.925 1195.61 477.465 1198.15 C 511.923 1204.78 535.047 1181.42 540.557 1149.1 C 552.11 1154.1 560.521 1156.58 572.694 1159.73 C 571.166 1169.44 568.116 1176.34 564.143 1185.24 C 555.535 1201.43 542.474 1215 526.107 1223.41 C 506.148 1233.67 481.975 1235.14 460.726 1228.11 C 438.68 1220.81 421.44 1205.5 411.194 1184.67 C 406.571 1175.28 403.977 1165.35 402.787 1154.97 C 401.082 1140.09 400.521 1012.04 403.484 1004.18 C 405.525 998.756 410.063 996.34 415.033 993.996 z"/>
<path transform="translate(0,0)" fill="rgb(52,165,109)" d="M 482.694 815.397 C 482.756 815.39 482.818 815.384 482.881 815.377 C 506.001 813.952 528.714 821.942 545.849 837.529 C 562.324 852.465 572.063 873.426 572.855 895.649 C 573.781 920.616 564.288 937.098 548.01 954.556 L 524.655 930.961 C 538.508 917.839 542.223 904.603 538.471 886.343 C 538.083 885.304 537.684 884.269 537.273 883.239 C 531.86 869.573 521.504 858.172 507.786 852.53 C 494.751 847.237 480.149 847.333 467.184 852.795 C 450.278 860.116 442.515 872.314 436.076 888.553 C 425.578 888.089 413.669 888.177 403.062 888.026 C 412.762 845.779 438.572 819.539 482.694 815.397 z"/>
<path transform="translate(0,0)" fill="rgb(249,175,54)" d="M 546.237 1095.68 C 552.562 1100.95 561.973 1111.34 569.967 1113.41 C 581.181 1116.33 599.197 1115.34 611.114 1115.32 L 697.365 1115.05 C 711.185 1114.99 727.109 1114.52 740.778 1115.38 C 762.742 1116.77 765.107 1148 738.25 1149.07 L 590.052 1149.03 C 558.991 1148.73 544.365 1142.2 522.978 1120.41 C 527.61 1114.52 540.337 1101.91 546.237 1095.68 z"/>
<path transform="translate(0,0)" fill="rgb(15,76,95)" d="M 1527.92 936.926 L 1547.91 936.999 L 1547.94 1053.44 C 1541.66 1053.66 1536.6 1053.88 1530.32 1053.46 C 1526.86 1050.4 1530.67 1050.61 1528.08 1046.1 C 1523.41 1046.8 1519.99 1050.53 1515.33 1052.68 C 1505.49 1057.21 1494.77 1054.73 1485.07 1051.39 C 1459.58 1037.33 1453.27 1003.73 1471.99 982.055 C 1478.92 974.068 1488.73 969.154 1499.28 968.391 C 1510.87 967.614 1519.31 971.542 1527.84 978.86 C 1527.68 964.882 1527.71 950.903 1527.92 936.926 z"/>
<path transform="translate(0,0)" fill="#1a1a1a" d="M 1502.78 986.101 C 1513.79 985.997 1522.51 990.93 1526.49 1001.49 C 1529.15 1008.77 1528.81 1016.82 1525.54 1023.86 C 1521.99 1031.36 1517.68 1034.37 1510.27 1037.14 C 1476.1 1038.36 1472.37 994.268 1502.78 986.101 z"/>
<path transform="translate(0,0)" fill="rgb(52,165,109)" d="M 583.819 899.322 L 723.192 899.196 C 735.712 899.177 757.796 897.22 757.652 916.261 C 757.599 923.182 754.113 926.704 749.216 931.114 C 739.045 934.205 693.338 933.026 678.987 933.001 L 576.535 932.919 C 581.963 919.21 582.502 914.067 583.819 899.322 z"/>
<path transform="translate(0,0)" fill="rgb(15,76,95)" d="M 232.118 1115.24 C 249.171 1114.67 269.318 1115.17 286.579 1115.17 L 390.993 1115.18 L 390.961 1149.1 L 376.846 1149.05 C 358.253 1149.04 235.566 1151.32 226.226 1147 C 222.079 1145.08 218.934 1141.11 217.665 1136.76 C 216.417 1132.49 216.714 1127.75 219.104 1123.92 C 222.167 1119.02 226.725 1116.72 232.118 1115.24 z"/>
<path transform="translate(0,0)" fill="rgb(15,76,95)" d="M 229.715 1007.27 C 247.994 1006.52 269.493 1007.01 288.028 1007.01 L 390.978 1007.02 L 390.945 1040.9 L 379.124 1040.88 C 359.018 1040.88 236.004 1042.76 227.584 1039.51 C 223.456 1037.91 220.321 1034.79 218.544 1030.75 C 216.714 1026.59 216.247 1021.77 218.117 1017.54 C 220.369 1012.45 224.726 1009.33 229.715 1007.27 z"/>
<path transform="translate(0,0)" fill="rgb(52,165,109)" d="M 583.778 1006.96 L 689.445 1006.96 C 706.535 1006.96 723.602 1006.79 740.71 1007.21 C 749.41 1007.43 756.295 1012.74 757.565 1021.59 C 758.416 1027.53 756.086 1031.49 752.706 1036.12 C 749.518 1038.7 746.349 1040.27 742.176 1040.48 C 724.523 1041.39 705.695 1041.02 688.008 1041 L 583.707 1040.84 C 585.204 1027.23 585.031 1020.65 583.778 1006.96 z"/>
<path transform="translate(0,0)" fill="rgb(15,76,95)" d="M 1400.6 969.214 C 1403.24 968.943 1405.89 968.805 1408.54 968.798 C 1440.75 968.577 1451.47 989.115 1451.17 1018.08 L 1387.58 1018.28 C 1388.85 1021.57 1390.07 1024.95 1392.26 1027.74 C 1396.45 1033.16 1402.64 1036.67 1409.45 1037.48 C 1419.9 1038.71 1426.76 1035.04 1434.56 1029.14 L 1435.91 1029.29 C 1440.67 1033.66 1442.68 1036.32 1446.7 1041.37 C 1441.76 1045.89 1438.87 1048.3 1432.51 1051.13 C 1420.02 1056.57 1405.84 1056.63 1393.29 1051.32 C 1382.5 1046.8 1374.09 1037.97 1370.1 1026.96 C 1360.33 999.872 1374.34 977.714 1400.6 969.214 z"/>
<path transform="translate(0,0)" fill="#1a1a1a" d="M 1404.81 985.272 C 1421.01 984.686 1427.4 988.883 1432.44 1004.58 L 1415.5 1004.74 L 1387.02 1004.68 C 1391.57 993.527 1393.38 989.931 1404.81 985.272 z"/>
<path transform="translate(0,0)" fill="rgb(15,76,95)" d="M 1056.84 969.168 C 1091.09 966.025 1107.37 985.448 1106.64 1018.09 C 1085.29 1017.92 1063.94 1018.02 1042.6 1018.4 C 1043.6 1020.88 1044.78 1023.84 1046.23 1026.06 C 1050 1031.72 1055.84 1035.69 1062.5 1037.09 C 1073.08 1039.22 1080.86 1035.7 1089.13 1029.92 L 1090.41 1029.19 C 1094.21 1031.79 1098.81 1037.41 1102.04 1040.99 C 1086.44 1056.2 1063.96 1060.15 1044.54 1049.61 C 1034.24 1043.93 1026.77 1034.22 1023.93 1022.81 C 1017.43 997.42 1031.48 975.104 1056.84 969.168 z"/>
<path transform="translate(0,0)" fill="#1a1a1a" d="M 1061.56 985.173 C 1076.64 984.77 1084.03 990.265 1087.84 1004.7 L 1069.84 1004.78 C 1060.7 1004.79 1051.56 1004.67 1042.42 1004.42 C 1046.33 993.067 1050.1 988.646 1061.56 985.173 z"/>
<path transform="translate(0,0)" fill="rgb(15,76,95)" d="M 1310.99 969.108 C 1313.54 968.944 1316.09 968.856 1318.64 968.842 C 1361.75 968.659 1351.97 1023.86 1351.99 1053.56 C 1345.46 1053.85 1337.93 1053.65 1331.31 1053.61 C 1331.49 1039.5 1331.71 1025.28 1331.71 1011.19 C 1331.71 1003.87 1330.29 995.666 1324.5 990.682 C 1318.72 985.7 1313.28 986.644 1306.29 987.259 C 1285.74 997.678 1291.81 1033.05 1292.13 1053.69 C 1285.54 1053.87 1278.41 1053.73 1271.77 1053.71 L 1271.45 969.935 C 1276.95 969.827 1285.27 969.305 1290.3 970.459 C 1291.37 973.618 1291.1 974.111 1291.23 977.478 C 1292.67 977.619 1305.77 970.402 1310.99 969.108 z"/>
<path transform="translate(0,0)" fill="rgb(15,76,95)" d="M 904.926 969.114 C 956.904 964.411 946.715 1018.29 946.707 1053.8 L 926.04 1053.75 C 926.107 1037.59 930.369 1003.7 919.801 991.27 C 915.534 986.254 908.232 986.742 902.138 987.051 C 879.465 995.252 886.175 1032.99 886.429 1053.73 L 865.932 1053.81 L 865.794 969.87 C 869.732 969.83 882.244 969.128 884.824 970.558 C 884.919 973.493 884.857 974.504 885.499 977.402 C 890.223 976.618 896.635 971.241 903.703 969.418 L 904.926 969.114 z"/>
<path transform="translate(0,0)" fill="rgb(52,165,109)" d="M 1722.85 969.153 C 1739.2 967.796 1748.41 969.149 1763.14 976.111 C 1761.41 980.568 1758.1 986.793 1755.91 991.228 C 1746.86 986.837 1718.23 978.804 1716.09 994.942 C 1720.78 1006.8 1763.54 1000.97 1766.11 1024.5 C 1768.49 1046.35 1752.04 1052.46 1733.91 1054.83 C 1718.48 1055.34 1707.51 1052.93 1694.31 1045.09 C 1697.27 1039.55 1698.78 1035.63 1701.08 1029.8 C 1702.06 1030.33 1703.05 1030.84 1704.05 1031.35 C 1715.05 1036.97 1741.64 1044.75 1747.86 1029.35 C 1742.36 1016.66 1701.74 1022.79 1697.34 1002.09 C 1693.2 982.574 1705.81 973.379 1722.85 969.153 z"/>
<path transform="translate(0,0)" fill="rgb(249,175,54)" d="M 482.785 968.587 C 487.599 970.361 502.886 986.294 507.438 990.818 C 481.595 1016.7 483.076 1031.09 507.346 1057.55 L 491.69 1073.6 L 483.88 1081.5 C 447.241 1043.42 447.195 1007.08 482.785 968.587 z"/>
<path transform="translate(0,0)" fill="rgb(52,165,109)" d="M 1571.57 943.231 C 1578.53 943.042 1585.97 943.176 1592.98 943.185 L 1592.93 1035.96 C 1611 1035.77 1629.07 1035.71 1647.13 1035.79 C 1647.15 1041.84 1647.36 1047.61 1646.6 1053.61 L 1571.41 1053.82 L 1571.57 943.231 z"/>
<path transform="translate(0,0)" fill="rgb(15,76,95)" d="M 970.839 950.069 L 991.006 950.151 L 991.006 970.491 L 1012.21 970.893 L 1012.26 987.113 L 990.991 987.019 C 991.105 998.599 986.997 1028.8 996.861 1036.22 C 1001.05 1039.37 1007.52 1036.35 1011.94 1035.09 C 1013.94 1037.27 1016.19 1044.33 1017.41 1047.54 C 1017.54 1056.72 980.236 1059.42 974.214 1042.3 C 968.015 1024.67 970.557 1005.35 970.717 986.996 L 957.439 986.963 L 957.67 970.769 L 970.687 970.717 L 970.839 950.069 z"/>
<path transform="translate(0,0)" fill="rgb(52,165,109)" d="M 1783.97 949.962 L 1804.05 950.014 L 1804.19 970.556 L 1826.01 970.875 L 1826 986.859 L 1804.01 987.02 C 1803.97 999.157 1802.44 1024.02 1807.24 1034.5 C 1810.81 1042.28 1818.41 1033.67 1824.55 1036.26 C 1827.81 1037.63 1828.46 1041.2 1830.04 1044.88 C 1830.75 1047.09 1830.77 1046.92 1830.34 1049.19 C 1826.64 1053.05 1821.72 1054.3 1816.42 1054.67 C 1775.03 1057.59 1783.58 1016.88 1783.88 987.166 L 1770.73 986.877 L 1770.66 970.831 L 1783.93 970.676 L 1783.97 949.962 z"/>
<path transform="translate(0,0)" fill="rgb(15,76,95)" d="M 1185.29 937.062 L 1205.95 936.993 L 1206.03 1053.78 L 1185.58 1053.85 L 1185.29 937.062 z"/>
<path transform="translate(0,0)" fill="rgb(15,76,95)" d="M 821.08 942.998 L 842.219 942.981 C 842.381 979.904 842.343 1016.83 842.105 1053.75 L 820.987 1053.82 L 821.08 942.998 z"/>
<path transform="translate(0,0)" fill="rgb(15,76,95)" d="M 1161.79 969.184 C 1166.77 968.915 1166.92 968.042 1170.28 970.181 C 1172.48 974.83 1171.33 982.048 1171.18 987.826 C 1136.91 990.211 1143.67 1010.73 1143.08 1037.7 C 1142.97 1042.99 1143.11 1048.43 1143.11 1053.74 L 1123.01 1053.83 C 1122.06 1027.45 1122.74 996.605 1122.67 969.967 C 1128.09 969.811 1136.07 968.791 1140.49 970.769 C 1142.76 974.106 1141.98 973.885 1142.13 978.715 C 1142.51 978.901 1142.89 979.087 1143.27 979.274 C 1150.61 973.656 1151.63 971.962 1160.45 969.543 L 1161.79 969.184 z"/>
<path transform="translate(0,0)" fill="rgb(15,76,95)" d="M 1228.92 970.001 L 1249.31 969.908 L 1249.34 1053.82 L 1228.89 1053.81 L 1228.92 970.001 z"/>
<path transform="translate(0,0)" fill="rgb(52,165,109)" d="M 1659.56 969.974 L 1679.91 969.937 L 1679.99 1053.82 L 1659.99 1053.76 L 1659.56 969.974 z"/>
<path transform="translate(0,0)" fill="rgb(112,112,113)" d="M 1623.01 1095.56 C 1624.41 1096.13 1625.88 1096.36 1626.13 1097.5 C 1628.02 1106.06 1628.14 1140.07 1626.42 1146.95 C 1624.33 1148.35 1625.42 1148.17 1623.21 1147.77 L 1622.44 1144.09 C 1615.03 1143.04 1614.41 1153 1597.54 1145.1 C 1580.49 1126.25 1597.8 1100.01 1622.07 1117.04 C 1622.08 1110.46 1621.53 1101.74 1623.01 1095.56 z"/>
<path transform="translate(0,0)" fill="#1a1a1a" d="M 1603.64 1116.08 C 1624.06 1114.43 1628.88 1133.35 1613.83 1143.03 C 1594.78 1144.87 1589.8 1125.99 1603.64 1116.08 z"/>
<path transform="translate(0,0)" fill="rgb(112,112,113)" d="M 966.084 1118.93 C 965.954 1114.05 964.704 1099.91 966.853 1097.23 L 969.099 1097.55 C 970.826 1102.8 970.713 1143.25 969.17 1148.26 L 968.322 1148.36 L 969.47 1147.32 L 967.577 1147.76 C 965.478 1144.81 965.739 1144.7 965.718 1141.18 C 952.096 1156.01 938.065 1147.27 933.672 1129.74 C 937.434 1111.62 953.135 1103.47 966.084 1118.93 z"/>
<path transform="translate(0,0)" fill="#1a1a1a" d="M 963.822 1138.76 C 933.783 1163.75 930.817 1096.33 964.101 1120.6 C 965.982 1126.93 965.868 1132.44 963.822 1138.76 z"/>
<path transform="translate(0,0)" fill="url(#Gradient5)" d="M 966.084 1118.93 C 965.954 1114.05 964.704 1099.91 966.853 1097.23 L 969.099 1097.55 C 970.826 1102.8 970.713 1143.25 969.17 1148.26 L 968.322 1148.36 L 969.47 1147.32 L 967.577 1147.76 C 965.478 1144.81 965.739 1144.7 965.718 1141.18 L 963.822 1138.76 C 965.868 1132.44 965.982 1126.93 964.101 1120.6 L 966.084 1118.93 z"/>
<path transform="translate(0,0)" fill="url(#Gradient4)" d="M 821.798 1099.82 C 832.62 1099.86 854.548 1097.94 858.338 1110 C 861.752 1120.86 854.765 1129.1 844.942 1132.06 L 826.47 1132.07 C 826.431 1136.65 827.259 1144.73 825.131 1147.72 L 823.304 1147.63 C 820.908 1142.97 821.934 1108.25 821.798 1099.82 z"/>
<path transform="translate(0,0)" fill="#1a1a1a" d="M 826.44 1103.94 C 840.281 1103.92 862.339 1103.97 850.437 1124.77 C 841.848 1128.75 835.99 1128.11 826.559 1128.19 C 826.069 1120.51 826.359 1111.73 826.44 1103.94 z"/>
<path transform="translate(0,0)" fill="rgb(249,175,54)" d="M 401.896 943.82 C 412.757 943.548 424.312 943.825 435.224 943.898 C 435.41 954.657 437.141 967.984 430.855 976.35 C 424.384 980.826 415.09 984.88 408.518 978.1 C 400.218 969.537 401.749 954.926 401.896 943.82 z"/>
<path transform="translate(0,0)" fill="rgb(112,112,113)" d="M 907.127 1111.42 C 917.183 1110.07 926.457 1117.05 927.93 1127.09 C 929.403 1137.13 922.526 1146.49 912.505 1148.08 C 905.917 1149.12 899.275 1146.55 895.116 1141.33 C 890.957 1136.12 889.923 1129.07 892.409 1122.88 C 894.894 1116.69 900.516 1112.31 907.127 1111.42 z"/>
<path transform="translate(0,0)" fill="#1a1a1a" d="M 908.331 1115.87 C 913.252 1115.43 918.03 1117.67 920.842 1121.73 C 923.654 1125.79 924.067 1131.05 921.924 1135.5 C 919.782 1139.95 915.413 1142.91 910.483 1143.25 C 902.973 1143.76 896.451 1138.13 895.861 1130.62 C 895.271 1123.12 900.833 1116.54 908.331 1115.87 z"/>
<path transform="translate(0,0)" fill="rgb(112,112,113)" d="M 1321.1 1112.33 C 1327.42 1110.13 1334.44 1111.53 1339.45 1115.97 C 1344.45 1120.42 1346.66 1127.23 1345.22 1133.77 C 1343.78 1140.31 1338.92 1145.55 1332.51 1147.49 C 1322.88 1150.39 1312.69 1145.06 1309.59 1135.5 C 1306.48 1125.93 1311.6 1115.64 1321.1 1112.33 z"/>
<path transform="translate(0,0)" fill="#1a1a1a" d="M 1325.19 1115.96 C 1332.69 1114.94 1339.61 1120.16 1340.69 1127.66 C 1341.76 1135.15 1336.58 1142.11 1329.09 1143.23 C 1321.53 1144.36 1314.5 1139.12 1313.42 1131.56 C 1312.34 1124 1317.62 1117 1325.19 1115.96 z"/>
<path transform="translate(0,0)" fill="rgb(112,112,113)" d="M 1556.1 1130.75 C 1553.95 1137.3 1560.01 1141.57 1565.57 1143.53 C 1571.32 1145.54 1576.58 1139.49 1581.84 1140.69 L 1582.17 1142.25 C 1579.27 1146.56 1578.02 1146.33 1573.54 1147.56 C 1548.84 1154.37 1539.43 1116.08 1563.82 1111.29 C 1574.4 1109.21 1589.48 1122.07 1584.11 1130.62 C 1577.16 1131.44 1563.27 1131.05 1556.1 1130.75 z"/>
<path transform="translate(0,0)" fill="#1a1a1a" d="M 1555.19 1127.67 C 1558.26 1106.88 1580.88 1116.75 1578.97 1127.25 C 1576.85 1128.17 1576.95 1128.2 1574.67 1128.38 C 1577.34 1129 1581.59 1129.85 1584.11 1130.62 C 1577.16 1131.44 1563.27 1131.05 1556.1 1130.75 L 1555.19 1127.67 z"/>
<path transform="translate(0,0)" fill="rgb(94,93,95)" d="M 1555.19 1127.67 C 1561.75 1127.8 1568.13 1127.87 1574.67 1128.38 C 1577.34 1129 1581.59 1129.85 1584.11 1130.62 C 1577.16 1131.44 1563.27 1131.05 1556.1 1130.75 L 1555.19 1127.67 z"/>
<path transform="translate(0,0)" fill="rgb(112,112,113)" d="M 1458.6 1111.04 C 1473.42 1110.98 1476.46 1118.19 1478.44 1131.15 C 1471.73 1131.21 1450.93 1128.16 1448.72 1134.7 C 1451.73 1143.29 1459.81 1144.29 1467.51 1142.91 C 1470.96 1141.11 1471.37 1140.06 1474.29 1140.68 L 1474.47 1142.37 C 1469.54 1148.33 1458.72 1150.12 1452.59 1146.09 C 1436.74 1135.66 1440.98 1116.17 1458.6 1111.04 z"/>
<path transform="translate(0,0)" fill="#1a1a1a" d="M 1455.82 1116.16 C 1462.38 1115.58 1469.86 1116.6 1472.82 1124.81 C 1473.28 1126.08 1472.46 1126.41 1471.52 1127.55 L 1467.25 1127.78 C 1461.54 1127.99 1453.32 1129.15 1448.94 1125.78 L 1448.86 1123.46 C 1451.22 1119.51 1452.11 1119.12 1455.82 1116.16 z"/>
<path transform="translate(0,0)" fill="rgb(112,112,113)" d="M 1284.63 1099.26 C 1291.02 1099.18 1298.82 1101.51 1303.66 1105.74 L 1303.26 1107.3 C 1294.97 1110.37 1285.79 1096.19 1272.47 1109.75 C 1268.75 1113.53 1266.71 1118.64 1266.8 1123.95 C 1267.12 1139.57 1279.81 1143.56 1292.88 1142.85 C 1296.03 1140.7 1299.24 1137.29 1302.53 1140.02 L 1301.68 1142.34 C 1280.58 1161.77 1248.6 1132.44 1266.7 1108.62 C 1271.89 1101.78 1276.61 1100.57 1284.63 1099.26 z"/>
<path transform="translate(0,0)" fill="rgb(52,165,109)" d="M 1664.18 933.393 C 1668.34 931.392 1673.26 931.804 1677.03 934.469 C 1680.8 937.134 1682.83 941.634 1682.33 946.223 C 1681.83 950.813 1678.89 954.772 1674.63 956.566 C 1668.28 959.246 1660.94 956.367 1658.1 950.077 C 1655.27 943.787 1657.97 936.383 1664.18 933.393 z"/>
<path transform="translate(0,0)" fill="rgb(15,76,95)" d="M 1233.87 933.271 C 1238.09 931.314 1243.05 931.823 1246.79 934.6 C 1250.52 937.376 1252.45 941.974 1251.79 946.584 C 1251.14 951.195 1248.02 955.08 1243.66 956.71 C 1237.26 959.101 1230.11 956.007 1227.48 949.704 C 1224.85 943.401 1227.67 936.143 1233.87 933.271 z"/>
<path transform="translate(0,0)" fill="rgb(112,112,113)" d="M 983.718 1110.36 C 994.391 1114.13 981.362 1138.62 994.073 1142.57 C 1017.37 1149.81 1006.91 1115.59 1014.09 1111.35 L 1014.82 1113.27 L 1014.75 1112.34 C 1015.57 1114.27 1015.46 1117.27 1015.58 1119.55 C 1015.74 1125.94 1017.18 1143.54 1013.99 1147.99 C 1010.44 1148.46 1013.56 1146.37 1009.06 1143.68 C 983.076 1162.35 980.56 1127.9 983.718 1110.36 z"/>
<path transform="translate(0,0)" fill="rgb(112,112,113)" d="M 1400.97 1110.3 C 1405.1 1111.81 1403.66 1110.73 1406.06 1115.57 C 1412.5 1113.59 1417.32 1110.37 1424.59 1111.09 C 1435.23 1112.16 1435.64 1146.18 1430.77 1148.59 C 1427.7 1143.84 1428.32 1129.33 1428.29 1122.98 C 1426.72 1119.48 1424.45 1116.43 1420.42 1115.95 C 1396.5 1113.13 1410.61 1141.19 1403.81 1147.86 L 1401.19 1147.55 C 1399.64 1145.26 1400.43 1114.97 1400.97 1110.3 z"/>
<path transform="translate(0,0)" fill="rgb(112,112,113)" d="M 1190.29 1110.87 C 1190.69 1110.9 1192.79 1111.01 1193.04 1111.16 C 1198.06 1114.18 1206.27 1136.15 1208.69 1141.82 C 1212.62 1132.5 1217.02 1120.9 1222.87 1112.89 L 1224 1112.77 C 1222.95 1120.75 1218.55 1129.75 1215.33 1137.26 C 1211.24 1146.05 1206.07 1166.27 1191.08 1160.37 C 1189.5 1157.99 1189.93 1159.28 1190.25 1156.27 C 1195.4 1156.34 1199.3 1156.78 1203.53 1153.84 C 1209.56 1143.06 1191.5 1123.2 1190.29 1110.87 z"/>
<path transform="translate(0,0)" fill="rgb(112,112,113)" d="M 1039.88 1111.24 C 1045.34 1111.01 1054.74 1112.34 1057.83 1117.2 L 1056.7 1119.08 C 1051.09 1121.55 1029.66 1104.93 1030.9 1132.16 C 1031.33 1141.56 1039.2 1144.26 1047.11 1143.28 C 1051.5 1140.85 1051.64 1139.81 1055.84 1140 L 1056.59 1141.42 C 1053.43 1147.79 1042.68 1150.09 1037.22 1147.29 C 1019.24 1138.1 1022.62 1118.41 1039.88 1111.24 z"/>
<path transform="translate(0,0)" fill="url(#Gradient3)" d="M 1498.1 1111.11 C 1503.09 1110.84 1517.95 1111.57 1515.82 1119.57 C 1510.1 1120.7 1508.16 1114.91 1503.01 1115.59 C 1483.82 1118.14 1484.43 1146.14 1508.69 1143.45 C 1511.35 1141.35 1512.31 1139.67 1515.54 1140.19 L 1515.17 1142.03 C 1494.74 1163.54 1467.1 1124.95 1498.1 1111.11 z"/>
<path transform="translate(0,0)" fill="rgb(112,112,113)" d="M 1107.4 1110.81 L 1110.55 1111.16 C 1114.84 1114.08 1123.04 1136.47 1125.24 1142.1 C 1127.8 1136.47 1136.71 1112.41 1142 1111.65 L 1143.05 1113 L 1141.69 1116.29 C 1139.33 1121.88 1130.46 1145.8 1126.19 1147.74 C 1120.29 1145.81 1107.64 1116.44 1107.4 1110.81 z"/>
<path transform="translate(0,0)" fill="rgb(112,112,113)" d="M 1068.84 1102.25 C 1075.87 1104.02 1071.19 1105.25 1073.96 1109.63 C 1080.6 1112.77 1084.04 1112.38 1091.22 1113.63 C 1086.41 1114.76 1076.57 1115.05 1074.19 1117.45 C 1071.85 1125.41 1070.46 1136.87 1077.43 1142.94 C 1080.72 1144.38 1083.01 1143.5 1086.62 1142.85 L 1085.33 1145.72 C 1083.2 1147.52 1082.57 1147.52 1079.95 1148.07 C 1064.13 1151.37 1069.6 1128.14 1068.5 1119.32 C 1067.82 1113.89 1066.26 1117.66 1062.32 1114.48 L 1062.66 1112.44 C 1069.44 1109.5 1068.13 1109.45 1068.84 1102.25 z"/>
<path transform="translate(0,0)" fill="rgb(112,112,113)" d="M 1170.26 1102.18 L 1173.56 1103.18 C 1175.63 1106.05 1174.93 1105.74 1175.1 1110.02 C 1178.87 1113.82 1180.45 1109.84 1185.72 1112.66 L 1185.69 1114.29 C 1183.09 1115.83 1178.24 1115.45 1174.95 1115.49 C 1175.1 1123.77 1172.18 1137.47 1178.43 1143.04 C 1181.76 1144.45 1183.44 1143.67 1187.02 1142.91 C 1187.49 1145.35 1187.49 1144.11 1186.39 1146.64 C 1182.3 1148.86 1181.02 1148.24 1176.62 1147.36 C 1165 1145.04 1173.59 1126.24 1168.57 1116.14 C 1166.35 1115.91 1166.42 1115.94 1164.37 1115.05 L 1164.46 1112.74 C 1171.11 1108.93 1170.06 1109.52 1170.26 1102.18 z"/>
<path transform="translate(0,0)" fill="rgb(112,112,113)" d="M 1527.69 1102.24 L 1530.89 1103.43 C 1532.26 1106.13 1531.99 1107.14 1531.9 1110.07 C 1536.29 1113.47 1537.7 1109.61 1542.69 1112.38 L 1542.72 1114.15 C 1539.69 1115.31 1540.1 1114.99 1536.74 1115.16 C 1528.58 1120.5 1530.62 1136.05 1534.86 1143.11 C 1538.2 1144.29 1541.54 1142.86 1545.74 1143.23 L 1544.46 1146.31 C 1542.08 1147.94 1537.02 1148.63 1534.35 1148.06 C 1522.2 1145.49 1529.91 1120.9 1526.21 1115.66 L 1521.9 1115.36 L 1520.99 1114.02 L 1521.62 1112.12 L 1525.91 1111.62 C 1528.02 1109.22 1527.46 1106.08 1527.69 1102.24 z"/>
<path transform="translate(0,0)" fill="url(#Gradient2)" d="M 1359.26 1118.87 C 1383.55 1094.76 1394.58 1130.9 1386.92 1147.55 C 1383.79 1147.85 1384.95 1148.36 1382.95 1146.92 C 1383.19 1140.17 1385.52 1113.99 1371.89 1114.26 C 1367.85 1114.34 1362.77 1119.5 1360.35 1122.76 C 1358.9 1120.37 1359.38 1121.62 1359.26 1118.87 z"/>
<path transform="translate(0,0)" fill="url(#Gradient1)" d="M 868.843 1110.42 L 871.728 1111.69 C 872.373 1114.15 872.24 1113.99 873.311 1116.26 L 874.255 1115.69 C 877.252 1113.9 881.654 1111.26 885.245 1112.15 C 881.602 1118.62 875.795 1115.67 873.012 1126.75 C 873.07 1134.67 873.662 1139.97 871.044 1147.46 L 869.99 1147.09 C 867.32 1139.46 866.946 1118.14 868.843 1110.42 z"/>
<path transform="translate(0,0)" fill="rgb(112,112,113)" d="M 1095.74 1110.25 L 1098.63 1111.45 C 1101.16 1116.37 1099.86 1142.05 1099.7 1148.83 L 1096.09 1147.65 C 1093.57 1141.97 1094.6 1117.07 1095.74 1110.25 z"/>
<path transform="translate(0,0)" fill="rgb(112,112,113)" d="M 1151.39 1110.21 C 1153.5 1110.85 1152.94 1110.64 1154.82 1111.76 C 1156.95 1119.35 1155.56 1140.27 1155.15 1148.96 L 1151.81 1147.68 C 1149.33 1142.07 1150.67 1117.2 1151.39 1110.21 z"/>
<path transform="translate(0,0)" fill="rgb(94,93,95)" d="M 1360.35 1122.76 C 1359.83 1129.37 1362 1145.18 1357.3 1148.37 L 1356.18 1146.89 C 1355.2 1141.81 1354.74 1115.39 1356.87 1111.96 L 1358.19 1112.03 C 1360.3 1114.89 1359.57 1114.25 1359.26 1118.87 C 1359.38 1121.62 1358.9 1120.37 1360.35 1122.76 z"/>
<path transform="translate(0,0)" fill="rgb(24,26,28)" d="M 1232.65 1139.4 C 1234.22 1140.57 1234.14 1140.65 1235.46 1142.15 C 1235.74 1146.09 1234.99 1155.11 1230.56 1156.24 L 1230.16 1153.39 C 1231.17 1149.28 1233.93 1146.48 1233.14 1143.39 L 1232.22 1143.2 C 1231.49 1145.43 1231.9 1144.75 1230.53 1146.62 L 1229.14 1144.41 C 1230.24 1140.68 1229.35 1142.43 1232.65 1139.4 z"/>
<path transform="translate(0,0)" fill="rgb(112,112,113)" d="M 1639.35 1140.62 C 1640.56 1139.84 1642.08 1139.77 1643.35 1140.44 C 1644.61 1141.12 1645.41 1142.42 1645.43 1143.85 C 1645.45 1145.28 1644.7 1146.62 1643.46 1147.33 C 1641.61 1148.39 1639.25 1147.79 1638.14 1145.97 C 1637.03 1144.15 1637.57 1141.78 1639.35 1140.62 z"/>
</svg>